<svg width="65" height="22" viewBox="0 0 65 22" fill="none" xmlns="http://www.w3.org/2000/svg">
<g style="mix-blend-mode:multiply">
<rect width="65" height="22" rx="11" fill="#ECFDF3"/>
<circle cx="10" cy="11" r="3" fill="#12B76A"/>
<path d="M22.1081 15H20.7104L23.851 6.27273H25.3723L28.513 15H27.1152L24.6479 7.85795H24.5797L22.1081 15ZM22.3425 11.5824H26.8766V12.6903H22.3425V11.5824ZM32.3226 15.1321C31.6891 15.1321 31.1436 14.9886 30.6863 14.7017C30.2317 14.4119 29.8823 14.0128 29.638 13.5043C29.3936 12.9957 29.2715 12.4134 29.2715 11.7571C29.2715 11.0923 29.3965 10.5057 29.6465 9.99716C29.8965 9.4858 30.2488 9.08665 30.7033 8.79972C31.1578 8.51278 31.6934 8.36932 32.3098 8.36932C32.807 8.36932 33.2502 8.46165 33.6394 8.64631C34.0286 8.82812 34.3425 9.08381 34.5811 9.41335C34.8226 9.7429 34.9661 10.1278 35.0115 10.5682H33.7715C33.7033 10.2614 33.5471 9.99716 33.3027 9.77557C33.0613 9.55398 32.7374 9.44318 32.3311 9.44318C31.976 9.44318 31.665 9.53693 31.3979 9.72443C31.1337 9.90909 30.9277 10.1733 30.78 10.517C30.6323 10.858 30.5584 11.2614 30.5584 11.7273C30.5584 12.2045 30.6309 12.6165 30.7757 12.9631C30.9206 13.3097 31.1252 13.5781 31.3894 13.7685C31.6564 13.9588 31.9703 14.054 32.3311 14.054C32.5726 14.054 32.7914 14.0099 32.9874 13.9219C33.1863 13.831 33.3525 13.7017 33.486 13.5341C33.6223 13.3665 33.7175 13.1648 33.7715 12.929H35.0115C34.9661 13.3523 34.8283 13.7301 34.5982 14.0625C34.3681 14.3949 34.0598 14.6562 33.6735 14.8466C33.29 15.0369 32.8397 15.1321 32.3226 15.1321ZM39.4295 8.45455V9.47727H35.8542V8.45455H39.4295ZM36.813 6.88636H38.0872V13.0781C38.0872 13.3253 38.1241 13.5114 38.198 13.6364C38.2718 13.7585 38.367 13.8423 38.4835 13.8878C38.6028 13.9304 38.7321 13.9517 38.8713 13.9517C38.9735 13.9517 39.063 13.9446 39.1397 13.9304C39.2164 13.9162 39.2761 13.9048 39.3187 13.8963L39.5488 14.9489C39.475 14.9773 39.3699 15.0057 39.2335 15.0341C39.0971 15.0653 38.9267 15.0824 38.7221 15.0852C38.3869 15.0909 38.0744 15.0312 37.7846 14.9062C37.4949 14.7812 37.2605 14.5881 37.0815 14.3267C36.9025 14.0653 36.813 13.7372 36.813 13.3423V6.88636ZM40.839 15V8.45455H42.1131V15H40.839ZM41.4824 7.4446C41.2608 7.4446 41.0705 7.37074 40.9114 7.22301C40.7551 7.07244 40.677 6.89347 40.677 6.68608C40.677 6.47585 40.7551 6.29687 40.9114 6.14915C41.0705 5.99858 41.2608 5.9233 41.4824 5.9233C41.704 5.9233 41.8929 5.99858 42.0492 6.14915C42.2083 6.29687 42.2878 6.47585 42.2878 6.68608C42.2878 6.89347 42.2083 7.07244 42.0492 7.22301C41.8929 7.37074 41.704 7.4446 41.4824 7.4446ZM49.4267 8.45455L47.0531 15H45.6895L43.3116 8.45455H44.6795L46.3372 13.4915H46.4054L48.0588 8.45455H49.4267ZM53.2225 15.1321C52.5776 15.1321 52.0222 14.9943 51.5563 14.7188C51.0932 14.4403 50.7353 14.0497 50.4824 13.5469C50.2324 13.0412 50.1074 12.4489 50.1074 11.7699C50.1074 11.0994 50.2324 10.5085 50.4824 9.99716C50.7353 9.4858 51.0875 9.08665 51.5392 8.79972C51.9938 8.51278 52.525 8.36932 53.133 8.36932C53.5023 8.36932 53.8603 8.4304 54.2069 8.55256C54.5534 8.67472 54.8645 8.86648 55.1401 9.12784C55.4157 9.3892 55.633 9.72869 55.7921 10.1463C55.9512 10.5611 56.0307 11.0653 56.0307 11.6591V12.1108H50.8276V11.1562H54.7821C54.7821 10.821 54.714 10.5241 54.5776 10.2656C54.4412 10.0043 54.2495 9.7983 54.0023 9.64773C53.758 9.49716 53.4711 9.42188 53.1415 9.42188C52.7836 9.42188 52.4711 9.50994 52.204 9.68608C51.9398 9.85937 51.7353 10.0866 51.5904 10.3679C51.4483 10.6463 51.3773 10.9489 51.3773 11.2756V12.0213C51.3773 12.4588 51.454 12.831 51.6074 13.1378C51.7637 13.4446 51.981 13.679 52.2594 13.8409C52.5378 14 52.8631 14.0795 53.2353 14.0795C53.4767 14.0795 53.6969 14.0455 53.8958 13.9773C54.0946 13.9062 54.2665 13.8011 54.4114 13.6619C54.5563 13.5227 54.6671 13.3509 54.7438 13.1463L55.9498 13.3636C55.8532 13.7187 55.6799 14.0298 55.4299 14.2969C55.1827 14.5611 54.8716 14.767 54.4966 14.9148C54.1245 15.0597 53.6998 15.1321 53.2225 15.1321Z" fill="#027A48"/>
</g>
</svg>
