<svg width="74" height="22" viewBox="0 0 74 22" fill="none" xmlns="http://www.w3.org/2000/svg">
<g style="mix-blend-mode:multiply">
<rect width="74" height="22" rx="11" fill="#FFF2EA"/>
<circle cx="10" cy="11" r="3" fill="#F15046"/>
<path d="M22.717 6.27273V15H21.4002V6.27273H22.717ZM25.8065 11.1136V15H24.5323V8.45455H25.7553V9.51989H25.8363C25.9869 9.1733 26.2227 8.89489 26.5437 8.68466C26.8675 8.47443 27.2752 8.36932 27.7667 8.36932C28.2127 8.36932 28.6033 8.46307 28.9386 8.65057C29.2738 8.83523 29.5337 9.1108 29.7184 9.47727C29.9031 9.84375 29.9954 10.2969 29.9954 10.8366V15H28.7212V10.9901C28.7212 10.5156 28.5977 10.1449 28.3505 9.87784C28.1033 9.60795 27.7638 9.47301 27.332 9.47301C27.0366 9.47301 26.7738 9.53693 26.5437 9.66477C26.3164 9.79261 26.136 9.98011 26.0025 10.2273C25.8718 10.4716 25.8065 10.767 25.8065 11.1136ZM33.609 15.1449C33.1942 15.1449 32.8192 15.0682 32.484 14.9148C32.1488 14.7585 31.8832 14.5327 31.6871 14.2372C31.494 13.9418 31.3974 13.5795 31.3974 13.1506C31.3974 12.7812 31.4684 12.4773 31.6104 12.2386C31.7525 12 31.9442 11.8111 32.1857 11.6719C32.4272 11.5327 32.6971 11.4276 32.9954 11.3565C33.2937 11.2855 33.5977 11.2315 33.9073 11.1946C34.2994 11.1491 34.6175 11.1122 34.8619 11.0838C35.1062 11.0526 35.2837 11.0028 35.3945 10.9347C35.5053 10.8665 35.5607 10.7557 35.5607 10.6023V10.5724C35.5607 10.2003 35.4556 9.91193 35.2454 9.70739C35.038 9.50284 34.7283 9.40057 34.3164 9.40057C33.8874 9.40057 33.5494 9.49574 33.3022 9.68608C33.0579 9.87358 32.8888 10.0824 32.7951 10.3125L31.5977 10.0398C31.7397 9.64205 31.9471 9.32102 32.2198 9.0767C32.4954 8.82955 32.8121 8.65057 33.1701 8.53977C33.5281 8.42614 33.9045 8.36932 34.2994 8.36932C34.5607 8.36932 34.8377 8.40057 35.1303 8.46307C35.4258 8.52273 35.7013 8.63352 35.957 8.79545C36.2156 8.95739 36.4272 9.18892 36.592 9.49006C36.7567 9.78835 36.8391 10.1761 36.8391 10.6534V15H35.5948V14.1051H35.5437C35.4613 14.2699 35.3377 14.4318 35.1729 14.5909C35.0082 14.75 34.7965 14.8821 34.538 14.9872C34.2795 15.0923 33.9698 15.1449 33.609 15.1449ZM33.886 14.1222C34.2383 14.1222 34.5394 14.0526 34.7894 13.9134C35.0423 13.7741 35.234 13.5923 35.3647 13.3679C35.4982 13.1406 35.565 12.8977 35.565 12.6392V11.7955C35.5195 11.8409 35.4315 11.8835 35.3008 11.9233C35.1729 11.9602 35.0266 11.9929 34.8619 12.0213C34.6971 12.0469 34.5366 12.071 34.3803 12.0938C34.2241 12.1136 34.0934 12.1307 33.9883 12.1449C33.7411 12.1761 33.5153 12.2287 33.3107 12.3026C33.109 12.3764 32.9471 12.483 32.8249 12.6222C32.7056 12.7585 32.646 12.9403 32.646 13.1676C32.646 13.483 32.7624 13.7216 32.9954 13.8835C33.2283 14.0426 33.5252 14.1222 33.886 14.1222ZM41.2933 15.1321C40.6598 15.1321 40.1143 14.9886 39.657 14.7017C39.2024 14.4119 38.853 14.0128 38.6087 13.5043C38.3643 12.9957 38.2422 12.4134 38.2422 11.7571C38.2422 11.0923 38.3672 10.5057 38.6172 9.99716C38.8672 9.4858 39.2195 9.08665 39.674 8.79972C40.1286 8.51278 40.6641 8.36932 41.2805 8.36932C41.7777 8.36932 42.2209 8.46165 42.6101 8.64631C42.9993 8.82812 43.3132 9.08381 43.5518 9.41335C43.7933 9.7429 43.9368 10.1278 43.9822 10.5682H42.7422C42.674 10.2614 42.5178 9.99716 42.2734 9.77557C42.032 9.55398 41.7081 9.44318 41.3018 9.44318C40.9467 9.44318 40.6357 9.53693 40.3686 9.72443C40.1044 9.90909 39.8984 10.1733 39.7507 10.517C39.603 10.858 39.5291 11.2614 39.5291 11.7273C39.5291 12.2045 39.6016 12.6165 39.7464 12.9631C39.8913 13.3097 40.0959 13.5781 40.3601 13.7685C40.6271 13.9588 40.9411 14.054 41.3018 14.054C41.5433 14.054 41.7621 14.0099 41.9581 13.9219C42.157 13.831 42.3232 13.7017 42.4567 13.5341C42.593 13.3665 42.6882 13.1648 42.7422 12.929H43.9822C43.9368 13.3523 43.799 13.7301 43.5689 14.0625C43.3388 14.3949 43.0305 14.6562 42.6442 14.8466C42.2607 15.0369 41.8104 15.1321 41.2933 15.1321ZM48.4002 8.45455V9.47727H44.8249V8.45455H48.4002ZM45.7837 6.88636H47.0579V13.0781C47.0579 13.3253 47.0948 13.5114 47.1687 13.6364C47.2425 13.7585 47.3377 13.8423 47.4542 13.8878C47.5735 13.9304 47.7028 13.9517 47.842 13.9517C47.9442 13.9517 48.0337 13.9446 48.1104 13.9304C48.1871 13.9162 48.2468 13.9048 48.2894 13.8963L48.5195 14.9489C48.4457 14.9773 48.3406 15.0057 48.2042 15.0341C48.0678 15.0653 47.8974 15.0824 47.6928 15.0852C47.3576 15.0909 47.0451 15.0312 46.7553 14.9062C46.4656 14.7812 46.2312 14.5881 46.0522 14.3267C45.8732 14.0653 45.7837 13.7372 45.7837 13.3423V6.88636ZM49.8097 15V8.45455H51.0838V15H49.8097ZM50.4531 7.4446C50.2315 7.4446 50.0412 7.37074 49.8821 7.22301C49.7259 7.07244 49.6477 6.89347 49.6477 6.68608C49.6477 6.47585 49.7259 6.29687 49.8821 6.14915C50.0412 5.99858 50.2315 5.9233 50.4531 5.9233C50.6747 5.9233 50.8636 5.99858 51.0199 6.14915C51.179 6.29687 51.2585 6.47585 51.2585 6.68608C51.2585 6.89347 51.179 7.07244 51.0199 7.22301C50.8636 7.37074 50.6747 7.4446 50.4531 7.4446ZM58.3974 8.45455L56.0238 15H54.6602L52.2823 8.45455H53.6502L55.3079 13.4915H55.3761L57.0295 8.45455H58.3974ZM62.1932 15.1321C61.5483 15.1321 60.9929 14.9943 60.527 14.7188C60.0639 14.4403 59.706 14.0497 59.4531 13.5469C59.2031 13.0412 59.0781 12.4489 59.0781 11.7699C59.0781 11.0994 59.2031 10.5085 59.4531 9.99716C59.706 9.4858 60.0582 9.08665 60.5099 8.79972C60.9645 8.51278 61.4957 8.36932 62.1037 8.36932C62.473 8.36932 62.831 8.4304 63.1776 8.55256C63.5241 8.67472 63.8352 8.86648 64.1108 9.12784C64.3864 9.3892 64.6037 9.72869 64.7628 10.1463C64.9219 10.5611 65.0014 11.0653 65.0014 11.6591V12.1108H59.7983V11.1562H63.7528C63.7528 10.821 63.6847 10.5241 63.5483 10.2656C63.4119 10.0043 63.2202 9.7983 62.973 9.64773C62.7287 9.49716 62.4418 9.42188 62.1122 9.42188C61.7543 9.42188 61.4418 9.50994 61.1747 9.68608C60.9105 9.85937 60.706 10.0866 60.5611 10.3679C60.419 10.6463 60.348 10.9489 60.348 11.2756V12.0213C60.348 12.4588 60.4247 12.831 60.5781 13.1378C60.7344 13.4446 60.9517 13.679 61.2301 13.8409C61.5085 14 61.8338 14.0795 62.206 14.0795C62.4474 14.0795 62.6676 14.0455 62.8665 13.9773C63.0653 13.9062 63.2372 13.8011 63.3821 13.6619C63.527 13.5227 63.6378 13.3509 63.7145 13.1463L64.9205 13.3636C64.8239 13.7187 64.6506 14.0298 64.4006 14.2969C64.1534 14.5611 63.8423 14.767 63.4673 14.9148C63.0952 15.0597 62.6705 15.1321 62.1932 15.1321Z" fill="#F15046"/>
</g>
</svg>
